<?xml version="1.0" encoding="UTF-8" standalone="no"?>
<svg
   viewBox="0 0 380 380"
   version="1.1"
   id="svg1"
   sodipodi:docname="gitlab.svg"
   inkscape:version="1.3.2 (091e20ef0f, 2023-11-25, custom)"
   xmlns:inkscape="http://www.inkscape.org/namespaces/inkscape"
   xmlns:sodipodi="http://sodipodi.sourceforge.net/DTD/sodipodi-0.dtd"
   xmlns="http://www.w3.org/2000/svg"
   xmlns:svg="http://www.w3.org/2000/svg">
  <sodipodi:namedview
     id="namedview1"
     pagecolor="#505050"
     bordercolor="#ffffff"
     borderopacity="1"
     inkscape:showpageshadow="0"
     inkscape:pageopacity="0"
     inkscape:pagecheckerboard="1"
     inkscape:deskcolor="#505050"
     inkscape:zoom="1.2421053"
     inkscape:cx="256.41949"
     inkscape:cy="182.3517"
     inkscape:window-width="1900"
     inkscape:window-height="997"
     inkscape:window-x="10"
     inkscape:window-y="36"
     inkscape:window-maximized="0"
     inkscape:current-layer="svg1" />
  <defs
     id="defs1">
    <style
       id="style1">.cls-1{fill:#fff;}</style>
  </defs>
  <g
     id="LOGO"
     transform="matrix(2.012107,0,0,2.012107,-192.31039,-190.63759)">
    <path
       class="cls-1"
       d="m 282.83,170.73 -0.27,-0.69 -26.14,-68.22 a 6.81,6.81 0 0 0 -2.69,-3.24 7,7 0 0 0 -8,0.43 7,7 0 0 0 -2.32,3.52 l -17.65,54 h -71.47 l -17.65,-54 a 6.86,6.86 0 0 0 -2.32,-3.53 7,7 0 0 0 -8,-0.43 6.87,6.87 0 0 0 -2.69,3.24 L 97.44,170 l -0.26,0.69 a 48.54,48.54 0 0 0 16.1,56.1 l 0.09,0.07 0.24,0.17 39.82,29.82 19.7,14.91 12,9.06 a 8.07,8.07 0 0 0 9.76,0 l 12,-9.06 19.7,-14.91 40.06,-30 0.1,-0.08 a 48.56,48.56 0 0 0 16.08,-56.04 z"
       id="path1" />
  </g>
</svg>
